<?xml version="1.0" encoding="UTF-8"?>
<svg id="Layer_2" data-name="Layer 2" xmlns="http://www.w3.org/2000/svg" viewBox="0 0 1902.26 562.08">
  <defs>
    <style>
      .cls-1 {
        fill: #bb401d;
      }

      .cls-1, .cls-2 {
        stroke-width: 0px;
      }
    </style>
  </defs>
  <g id="Livello_1" data-name="Livello 1">
    <g>
      <g>
        <g>
          <path class="cls-2" d="m909.54,49.43h-99.44l-161.46,312.19h95.43l115.09-235.01,115.05,235.01h96.79L909.54,49.43Z"/>
          <path class="cls-2" d="m1476.6,205.54c0,98.12-76.26,156.1-196.23,156.1h-174.38V49.44h174.38c119.97,0,196.23,57.98,196.23,156.1Zm-92.77,0c0-55.3-43.71-83.84-110.6-83.84h-76.26v167.69h76.26c66.9,0,110.6-28.54,110.6-83.85Z"/>
          <path class="cls-2" d="m1888.12,49.44v312.19h-79.83l-201.59-205.16v205.16h-87.86V49.44h96.33l185.09,190.88V49.44h87.86Z"/>
        </g>
        <g>
          <path class="cls-1" d="m722.53,468.72c0,14.98-11.67,22.52-29.22,22.52h-25.92v19.3h-18.75v-64.33h44.67c17.55,0,29.22,7.72,29.22,22.52Zm-19.02.37c0-6.52-4.78-8.64-11.76-8.64h-24.35v17.19h24.35c6.99,0,11.76-2.11,11.76-8.55Z"/>
          <path class="cls-1" d="m796.13,510.54l-17-20.31h-18.93v20.31h-18.66v-64.33h45.13c16.45,0,29.23,7.26,29.23,21.97,0,10.75-6.8,17.56-16.91,20.5l18.93,21.87h-21.78Zm-10.84-33.91c6.71,0,11.58-1.84,11.58-8.09s-4.87-8.09-11.58-8.09h-25.18v16.18h25.18Z"/>
          <path class="cls-1" d="m905.76,496.2v14.34h-68.65v-64.33h67.64v14.34h-49.17v10.57h40.53v13.69h-40.53v11.4h50.18Z"/>
          <path class="cls-1" d="m981.93,487.56l16.08,8.27c-5.97,9.47-18.93,16.82-36.3,16.82-24.26,0-40.62-12.59-40.62-34.28s16.36-34.28,41.36-34.28c16.63,0,29.5,7.53,35.29,16.73l-16.18,8.27c-4.23-6.62-10.75-9.74-19.39-9.74-13.23,0-22.06,6.71-22.06,19.02s8.82,19.02,22.06,19.02c8.64,0,15.26-2.94,19.76-9.83Z"/>
          <path class="cls-1" d="m1016.47,510.54v-64.33h18.75v64.33h-18.75Z"/>
          <path class="cls-1" d="m1130.43,490.41c0,13.23-12.22,22.24-35.57,22.24-16.54,0-30.42-4.5-40.53-12.59l9.83-11.58c7.63,6.43,18.2,10.01,31.06,10.01,11.03,0,16.54-2.02,16.54-6.25s-5.15-5.51-18.38-6.62c-19.12-1.66-36.49-5.88-36.49-20.22s14.89-21.32,35.29-21.32c13.79,0,26.47,3.31,35.29,9.56l-9.47,11.67c-7.17-5.06-15.81-7.08-25.83-7.17-7.54,0-16.63,1.2-16.63,5.79,0,4.32,7.44,4.87,18.93,5.79,21.05,1.75,35.93,5.88,35.93,20.68Z"/>
          <path class="cls-1" d="m1150.17,510.54v-64.33h18.75v64.33h-18.75Z"/>
          <path class="cls-1" d="m1189.59,478.37c0-21.78,16.45-34.28,41.91-34.28s42,12.5,42,34.28-16.54,34.28-42,34.28-41.91-12.5-41.91-34.28Zm64.79,0c0-12.13-8.73-19.02-22.89-19.02s-22.88,6.89-22.88,19.02,8.73,19.02,22.88,19.02,22.89-6.89,22.89-19.02Z"/>
          <path class="cls-1" d="m1370.17,446.2v64.33h-16.45l-41.54-42.27v42.27h-18.1v-64.33h19.85l38.14,39.33v-39.33h18.1Z"/>
          <path class="cls-1" d="m1530.39,446.2l-23.44,64.33h-18.66l-14.98-44.76-15.07,44.76h-18.47l-23.53-64.33h19.21l14.06,44.21,15.35-44.21h17.28l15.35,44.21,14.06-44.21h18.84Z"/>
          <path class="cls-1" d="m1541.58,478.37c0-21.78,16.45-34.28,41.91-34.28s42,12.5,42,34.28-16.54,34.28-42,34.28-41.91-12.5-41.91-34.28Zm64.79,0c0-12.13-8.73-19.02-22.89-19.02s-22.88,6.89-22.88,19.02,8.73,19.02,22.88,19.02,22.89-6.89,22.89-19.02Z"/>
          <path class="cls-1" d="m1700.66,510.54l-17-20.31h-18.93v20.31h-18.66v-64.33h45.13c16.45,0,29.23,7.26,29.23,21.97,0,10.75-6.8,17.56-16.91,20.5l18.93,21.87h-21.78Zm-10.84-33.91c6.71,0,11.58-1.84,11.58-8.09s-4.87-8.09-11.58-8.09h-25.18v16.18h25.18Z"/>
          <path class="cls-1" d="m1796.22,510.54l-21.6-27.66-14.25,12.68v14.98h-18.75v-64.33h18.75v29.78l32.9-29.78h23.34l-28.58,25.64,30.24,38.69h-22.06Z"/>
          <path class="cls-1" d="m1902.26,490.41c0,13.23-12.22,22.24-35.57,22.24-16.54,0-30.42-4.5-40.53-12.59l9.83-11.58c7.63,6.43,18.2,10.01,31.06,10.01,11.03,0,16.54-2.02,16.54-6.25s-5.15-5.51-18.38-6.62c-19.12-1.66-36.49-5.88-36.49-20.22s14.89-21.32,35.29-21.32c13.79,0,26.47,3.31,35.29,9.56l-9.47,11.67c-7.17-5.06-15.81-7.08-25.83-7.17-7.54,0-16.63,1.2-16.63,5.79,0,4.32,7.44,4.87,18.93,5.79,21.05,1.75,35.93,5.88,35.93,20.68Z"/>
        </g>
      </g>
      <g>
        <path class="cls-1" d="m561.73,364.43c0,30.52-11.6,60.98-34.86,84.24l-87.66,87.66c-16.49,16.49-38.86,25.75-62.18,25.75h-59.49l76.17-76.17,85.19-85.26c20.01-19.94,20.01-52.5,0-72.44l-161.3-161.3,19.48-19.48c15.73-15.73,41.22-15.73,56.94,0l132.83,132.83c23.26,23.2,34.86,53.72,34.86,84.18"/>
        <path class="cls-1" d="m197.65,561.73c-30.52,0-60.98-11.6-84.24-34.86l-87.66-87.66C9.26,422.72,0,400.36,0,377.04v-59.48l76.17,76.17,85.26,85.19c19.94,20.01,52.5,20.01,72.44,0l161.3-161.3,19.48,19.48c15.73,15.73,15.73,41.22,0,56.94l-132.83,132.83c-23.2,23.26-53.72,34.86-84.18,34.86"/>
        <path class="cls-1" d="m.35,197.65c0-30.52,11.6-60.98,34.86-84.24L122.87,25.75C139.36,9.26,161.72,0,185.05,0h59.49l-76.17,76.17-85.19,85.26c-20.01,19.94-20.01,52.5,0,72.44l161.3,161.3-19.48,19.48c-15.73,15.73-41.22,15.73-56.94,0L35.21,281.83C11.95,258.63.35,228.11.35,197.65"/>
        <path class="cls-1" d="m364.43.35c30.52,0,60.98,11.6,84.24,34.86l87.66,87.66c16.49,16.49,25.75,38.86,25.75,62.18v59.48l-76.17-76.17-85.26-85.19c-19.94-20.01-52.5-20.01-72.44,0l-161.3,161.3-19.48-19.48c-15.73-15.73-15.73-41.22,0-56.94L280.26,35.21C303.45,11.95,333.98.35,364.43.35"/>
      </g>
    </g>
  </g>
</svg>