<?xml version="1.0" encoding="UTF-8"?>
<svg id="Layer_2" data-name="Layer 2" xmlns="http://www.w3.org/2000/svg" viewBox="0 0 717.57 717.56">
  <defs>
    <style>
      .cls-1 {
        fill: #bb401d;
        stroke-width: 0px;
      }
    </style>
  </defs>
  <g id="Livello_1" data-name="Livello 1">
    <g>
      <path class="cls-1" d="m717.12,465.23c0,38.97-14.81,77.85-44.51,107.55l-111.9,111.9c-21.05,21.05-49.6,32.88-79.38,32.88h-75.94l97.25-97.24,108.76-108.85c25.55-25.45,25.55-67.02,0-92.48l-205.92-205.92,24.87-24.87c20.08-20.08,52.62-20.08,72.69,0l169.58,169.57c29.7,29.61,44.51,68.58,44.51,107.46"/>
      <path class="cls-1" d="m252.33,717.12c-38.97,0-77.85-14.81-107.55-44.51l-111.9-111.9C11.83,539.66,0,511.11,0,481.34v-75.94l97.24,97.24,108.85,108.76c25.45,25.55,67.02,25.55,92.48,0l205.92-205.92,24.87,24.87c20.08,20.08,20.08,52.62,0,72.69l-169.57,169.58c-29.61,29.7-68.58,44.51-107.46,44.51"/>
      <path class="cls-1" d="m.45,252.33c0-38.97,14.81-77.85,44.51-107.55l111.9-111.9C177.91,11.83,206.46,0,236.23,0h75.94l-97.25,97.24-108.76,108.85c-25.55,25.45-25.55,67.02,0,92.48l205.92,205.92-24.87,24.87c-20.08,20.08-52.62,20.08-72.69,0L44.95,359.79C15.25,330.17.45,291.21.45,252.33"/>
      <path class="cls-1" d="m465.24.45c38.97,0,77.85,14.81,107.55,44.51l111.9,111.9c21.05,21.05,32.88,49.6,32.88,79.38v75.94l-97.24-97.24-108.85-108.76c-25.45-25.55-67.02-25.55-92.48,0l-205.92,205.92-24.87-24.87c-20.08-20.08-20.08-52.62,0-72.69L357.78,44.95C387.4,15.25,426.36.45,465.24.45"/>
    </g>
  </g>
</svg>